HIERARCHY
ROOT Pelvis
{
	OFFSET 0.000000 0.000000 0.000000
	CHANNELS 6 Xposition Yposition Zposition Xrotation Yrotation Zrotation
	JOINT LeftUpLeg_virtual
	{
		OFFSET 0.000000 0.000000 0.000000
		CHANNELS 3 Xrotation Yrotation Zrotation
		JOINT LeftUpLeg
		{
			OFFSET 18.735201 -5.666702 -4.541200
			CHANNELS 3 Xrotation Yrotation Zrotation
			JOINT LeftLeg
			{
				OFFSET -0.021200 -31.938179 0.493100
				CHANNELS 3 Xrotation Yrotation Zrotation
				JOINT LeftFoot
				{
					OFFSET 0.021200 -31.938179 -4.336299
					CHANNELS 3 Xrotation Yrotation Zrotation
					JOINT LeftToeBase
					{
						OFFSET 0.943001 -26.722000 15.023500
						CHANNELS 3 Xrotation Yrotation Zrotation
						End Site
						{
							OFFSET 0 0 0
						}
					}
				}
			}
		}
	}
	JOINT RightUpLeg_virtual
	{
		OFFSET 0.000000 0.000000 0.000000
		CHANNELS 3 Xrotation Yrotation Zrotation
		JOINT RightUpLeg
		{
			OFFSET -18.735201 -5.666702 -4.541200
			CHANNELS 3 Xrotation Yrotation Zrotation
			JOINT RightLeg
			{
				OFFSET 0.018946 -31.938133 0.493100
				CHANNELS 3 Xrotation Yrotation Zrotation
				JOINT RightFoot
				{
					OFFSET -0.018946 -31.938126 -4.336299
					CHANNELS 3 Xrotation Yrotation Zrotation
					JOINT RightToeBase
					{
						OFFSET -0.943001 -26.722004 15.023500
						CHANNELS 3 Xrotation Yrotation Zrotation
						End Site
						{
							OFFSET 0 0 0
						}
					}
				}
			}
		}
	}
	JOINT Hips_virtual
	{
		OFFSET 0.000000 0.000000 0.000000
		CHANNELS 3 Xrotation Yrotation Zrotation
		JOINT Hips
		{
			OFFSET -0.000000 -0.000000 -0.000000
			CHANNELS 3 Xrotation Yrotation Zrotation
			JOINT Spine
			{
				OFFSET 0.000000 10.199997 -0.299500
				CHANNELS 3 Xrotation Yrotation Zrotation
				JOINT Spine1
				{
					OFFSET 0.000000 11.900002 -1.516600
					CHANNELS 3 Xrotation Yrotation Zrotation
					JOINT Spine2
					{
						OFFSET 0.000000 13.600006 -2.842500
						CHANNELS 3 Xrotation Yrotation Zrotation
						JOINT Neck_virtual
						{
							OFFSET 0.000000 0.000000 0.000000
							CHANNELS 3 Xrotation Yrotation Zrotation
							JOINT Neck
							{
								OFFSET 0.000000 9.624100 -2.890100
								CHANNELS 3 Xrotation Yrotation Zrotation
								JOINT Head
								{
									OFFSET 0.000000 14.068802 -1.351900
									CHANNELS 3 Xrotation Yrotation Zrotation
									End Site
									{
										OFFSET 0 0 0
									}
								}
							}
						}
						JOINT LeftShoulder_virtual
						{
							OFFSET 0.000000 0.000000 0.000000
							CHANNELS 3 Xrotation Yrotation Zrotation
							JOINT LeftShoulder
							{
								OFFSET 15.263000 10.923401 -0.547700
								CHANNELS 3 Xrotation Yrotation Zrotation
								JOINT LeftArm
								{
									OFFSET 25.438599 -2.830597 -13.032500
									CHANNELS 3 Xrotation Yrotation Zrotation
									JOINT LeftForeArm
									{
										OFFSET 29.960503 0.000000 0.000000
										CHANNELS 3 Xrotation Yrotation Zrotation
										JOINT LeftHand
										{
											OFFSET 27.849251 0.000000 0.000000
											CHANNELS 3 Xrotation Yrotation Zrotation
											End Site
											{
												OFFSET 0 0 0
											}
										}
									}
								}
							}
						}
						JOINT RightShoulder_virtual
						{
							OFFSET 0.000000 0.000000 0.000000
							CHANNELS 3 Xrotation Yrotation Zrotation
							JOINT RightShoulder
							{
								OFFSET -15.263000 10.923401 -0.547700
								CHANNELS 3 Xrotation Yrotation Zrotation
								JOINT RightArm
								{
									OFFSET -25.438599 -2.830597 -13.032500
									CHANNELS 3 Xrotation Yrotation Zrotation
									JOINT RightForeArm
									{
										OFFSET -29.960503 0.000000 0.000000
										CHANNELS 3 Xrotation Yrotation Zrotation
										JOINT RightHand
										{
											OFFSET -27.849251 0.000000 0.000000
											CHANNELS 3 Xrotation Yrotation Zrotation
											End Site
											{
												OFFSET 0 0 0
											}
										}
									}
								}
							}
						}
					}
				}
			}
		}
	}
}
MOTION
Frames: 5
Frame Time: 0.03333333
-0.336223 91.382111 -1.440826 0.000000 0.000000 0.000000 0.143279 4.507796 -1.001783 -18.893207 9.232429 7.425124 32.086914 -2.090482 3.247929 -8.028342 4.393266 -6.301880 0.000000 0.000000 0.000000 -0.740508 5.995181 -1.374838 -8.337846 -10.414327 -3.397498 24.304284 -8.683682 6.945241 -20.768619 -16.162369 0.758537 0.000000 0.000000 0.000000 -0.709845 5.657819 -0.777037 -0.524284 0.157176 -1.275973 20.208884 -1.140055 0.613211 1.189935 -0.523641 1.354821 0.000000 0.000000 0.000000 0.171157 -0.116443 0.883725 6.585921 0.162725 1.049064 0.000000 0.000000 0.000000 0.218507 0.336250 0.920053 11.987472 -37.812658 1.174860 7.235093 13.307958 -56.247363 2.071906 -31.168096 2.029750 0.000000 0.000000 0.000000 -0.038306 0.038343 0.492839 0.957776 -1.100498 2.936099 2.959311 23.415359 39.850708 -0.118475 21.645056 -0.822124 0.000000 0.000000 0.000000 
-0.297572 91.441750 -1.236717 0.000000 0.000000 0.000000 -0.114911 4.250270 -1.004037 -18.467488 9.325183 7.455048 31.886144 -2.181101 3.180114 -7.972076 4.486032 -6.430389 0.000000 0.000000 0.000000 -1.031737 5.771887 -1.371134 -7.761146 -10.439644 -3.271306 23.751385 -8.750471 6.801054 -20.776174 -16.266114 0.670466 0.000000 0.000000 0.000000 -0.997440 5.436877 -0.807813 -0.524108 0.155115 -1.247747 19.808952 -1.103795 0.695213 1.189972 -0.567291 1.328263 0.000000 0.000000 0.000000 0.249470 -0.120126 0.856241 6.638056 -0.051718 1.146943 0.000000 0.000000 0.000000 0.150820 0.338896 0.857984 11.761055 -37.473539 1.090430 8.588649 14.236242 -56.304777 2.125179 -31.228530 2.073395 0.000000 0.000000 0.000000 -0.020186 0.033239 0.450081 0.904260 -1.412527 2.930938 4.072206 22.725935 39.684355 -0.195532 22.370850 -0.887137 0.000000 0.000000 0.000000 
-0.270406 91.470230 -1.065723 0.000000 0.000000 0.000000 -0.293213 4.085849 -0.998075 -18.220942 9.439152 7.482071 31.815646 -2.285247 3.128045 -7.860650 4.582236 -6.499472 0.000000 0.000000 0.000000 -1.242426 5.606769 -1.363119 -7.320088 -10.511793 -3.184024 23.327176 -8.789455 6.672265 -20.826408 -16.371540 0.586756 0.000000 0.000000 0.000000 -1.199419 5.240574 -0.827165 -0.506149 0.169010 -1.221463 19.488623 -0.999915 0.690308 1.202737 -0.593602 1.337922 0.000000 0.000000 0.000000 0.326501 -0.103107 0.852906 6.654872 -0.270240 1.243484 0.000000 0.000000 0.000000 0.100869 0.365755 0.828971 11.502040 -36.990399 0.984822 9.558787 14.609081 -56.629699 2.185985 -31.423361 2.117090 0.000000 0.000000 0.000000 0.032340 0.053086 0.434415 0.904931 -1.565546 3.043423 4.229663 22.176282 40.368419 -0.203978 22.879990 -0.974041 0.000000 0.000000 0.000000 
-0.245211 91.467163 -0.930695 0.000000 0.000000 0.000000 -0.384653 4.050146 -0.978379 -18.151829 9.540225 7.494629 31.887688 -2.408630 3.097542 -7.767657 4.661756 -6.520763 0.000000 0.000000 0.000000 -1.357817 5.552820 -1.343712 -7.036203 -10.601381 -3.141212 23.056403 -8.789666 6.552010 -20.837922 -16.479592 0.513823 0.000000 0.000000 0.000000 -1.298115 5.117541 -0.818134 -0.482057 0.202753 -1.202358 19.235216 -0.855627 0.625648 1.229377 -0.607601 1.382854 0.000000 0.000000 0.000000 0.387678 -0.071583 0.877339 6.625899 -0.482117 1.333201 0.000000 0.000000 0.000000 0.069504 0.405243 0.835899 11.246207 -36.430764 0.915416 10.065603 14.553588 -57.201052 2.216522 -31.518598 2.138439 0.000000 0.000000 0.000000 0.102214 0.087046 0.443517 0.947468 -1.610962 3.285225 3.479672 21.736090 41.764643 -0.141967 23.038045 -1.076729 0.000000 0.000000 0.000000 
-0.227166 91.444168 -0.842644 0.000000 0.000000 0.000000 -0.386846 4.141034 -0.937575 -18.177312 9.568257 7.453729 32.000731 -2.589146 3.101494 -7.724877 4.673930 -6.570783 0.000000 0.000000 0.000000 -1.375213 5.617007 -1.299016 -6.901162 -10.671890 -3.133747 22.925904 -8.753243 6.433485 -20.810909 -16.594582 0.473669 0.000000 0.000000 0.000000 -1.299574 5.095597 -0.776301 -0.444359 0.263292 -1.167219 19.027445 -0.691533 0.521826 1.273051 -0.615654 1.445678 0.000000 0.000000 0.000000 0.424056 -0.034559 0.920853 6.557178 -0.679892 1.410522 0.000000 0.000000 0.000000 0.057209 0.445551 0.871055 11.025401 -35.888546 0.903950 10.127003 14.141461 -57.974359 2.228268 -31.552858 2.135285 0.000000 0.000000 0.000000 0.178650 0.123246 0.465781 1.024372 -1.527158 3.697497 2.015729 21.383364 43.687389 -0.021529 22.859846 -1.175381 0.000000 0.000000 0.000000 
